<svg width="20" height="12" viewBox="0 0 20 12" fill="none" xmlns="http://www.w3.org/2000/svg">
<path fill-rule="evenodd" clip-rule="evenodd" d="M19.5515 3.73323H19.3279C19.2641 3.72758 19.2002 3.74164 19.1446 3.77348V0.406858C19.1435 0.299314 19.1002 0.196501 19.0242 0.120452C18.9481 0.0444017 18.8453 0.00116274 18.7378 0H0.406851C0.299662 0.00228139 0.197498 0.045868 0.121686 0.12168C0.0458749 0.197491 0.00228139 0.299669 0 0.406858V11.4233C0.00116274 11.5308 0.0443949 11.6336 0.120445 11.7097C0.196495 11.7857 0.299307 11.829 0.406851 11.8301H18.7378C18.7912 11.8301 18.8441 11.8196 18.8935 11.7992C18.9428 11.7787 18.9877 11.7487 19.0255 11.711C19.0632 11.6732 19.0932 11.6283 19.1136 11.579C19.1341 11.5296 19.1446 11.4767 19.1446 11.4233V8.06113C19.2013 8.08971 19.2647 8.10208 19.3279 8.09689H19.5515C19.6133 8.09709 19.6745 8.08445 19.7312 8.05978C19.788 8.0351 19.8389 7.99894 19.881 7.95355C19.923 7.90817 19.9551 7.85457 19.9754 7.79613C19.9956 7.73769 20.0035 7.67568 19.9986 7.61403V4.2161C20.0035 4.15445 19.9956 4.09245 19.9754 4.03401C19.9551 3.97557 19.923 3.92195 19.881 3.87657C19.8389 3.83119 19.788 3.79502 19.7312 3.77035C19.6745 3.74568 19.6133 3.73304 19.5515 3.73323ZM17.8883 10.6856H1.25186V1.14902H17.8883V10.6856Z" fill="white"/>
<path d="M4.31891 2.07007H2.02979V9.76011H4.31891V2.07007Z" fill="white"/>
<path d="M13.9312 2.07007H11.6421V9.76011H13.9312V2.07007Z" fill="white"/>
<path d="M10.7527 2.07007H8.42334V9.76011H10.7527V2.07007Z" fill="white"/>
<path d="M7.53786 2.07007H5.2085V9.76011H7.53786V2.07007Z" fill="white"/>
</svg>
