<svg width="19" height="20" viewBox="0 0 19 20" fill="none" xmlns="http://www.w3.org/2000/svg">
<path d="M4.02674 5.88142C4.02674 4.4496 4.68892 3.14244 5.78285 2.14159C5.84772 2.08282 5.95958 2.07569 6.0334 2.12556L6.99311 2.76667C7.06917 2.81832 7.07812 2.90914 7.01324 2.96969C6.15644 3.74615 5.63744 4.76481 5.63744 5.88142C5.63744 6.99803 6.15644 8.01669 7.01548 8.79315C7.08035 8.8537 7.07141 8.94452 6.99534 8.99617L6.03564 9.63728C5.99965 9.66114 5.95347 9.67298 5.90676 9.67033C5.86005 9.66767 5.81644 9.65072 5.78508 9.62303C4.68892 8.6204 4.02674 7.31324 4.02674 5.88142Z" fill="white"/>
<path d="M7.01575e-08 5.88142C9.66185e-08 3.66245 0.9955 1.63048 2.6487 0.0508414C2.71134 -0.00970837 2.82543 -0.0168333 2.90149 0.0330315L3.8612 0.674146C3.93726 0.72401 3.94621 0.813054 3.88357 0.873604C2.46526 2.23063 1.6107 3.97767 1.6107 5.88142C1.6107 7.78517 2.46526 9.53221 3.88357 10.891C3.94621 10.9498 3.93726 11.0406 3.8612 11.0905L2.90149 11.7316C2.86493 11.7558 2.81784 11.7675 2.77049 11.7642C2.72313 11.7608 2.67935 11.7427 2.6487 11.7138C0.9955 10.1324 4.36966e-08 8.10039 7.01575e-08 5.88142Z" fill="white"/>
<path d="M8.52947 6.47058H10.2942C10.4559 6.47058 10.5883 6.6397 10.5883 6.8464V19.6242C10.5883 19.8309 10.4559 20 10.2942 20H8.52947C8.3677 20 8.23535 19.8309 8.23535 19.6242V6.8464C8.23535 6.6397 8.3677 6.47058 8.52947 6.47058Z" fill="white"/>
<circle cx="9.41168" cy="5.88232" r="1.76471" fill="white"/>
<path d="M12.6205 9.62312C13.7144 8.62227 14.3766 7.31511 14.3766 5.88329C14.3766 4.45147 13.7144 3.14431 12.6182 2.14168C12.5869 2.11399 12.5433 2.09704 12.4966 2.09438C12.4499 2.09173 12.4037 2.10357 12.3677 2.12743L11.408 2.76854C11.3319 2.82019 11.323 2.91101 11.3878 2.97156C12.2469 3.74802 12.7659 4.76668 12.7659 5.88329C12.7659 6.9999 12.2469 8.01856 11.3901 8.79502C11.3252 8.85557 11.3342 8.94639 11.4102 8.99804L12.3699 9.63915C12.4437 9.68902 12.5556 9.68189 12.6205 9.62312ZM15.7546 11.7139C17.4078 10.1342 18.4033 8.10226 18.4033 5.88329C18.4033 3.66432 17.4078 1.63235 15.7546 0.0509327C15.724 0.0220025 15.6802 0.00389452 15.6328 0.000558341C15.5855 -0.00277784 15.5384 0.00892854 15.5018 0.033124L14.5421 0.674238C14.4661 0.724102 14.4571 0.814927 14.5198 0.873696C15.9381 2.2325 16.7926 3.97954 16.7926 5.88329C16.7926 7.78704 15.9381 9.53408 14.5198 10.8911C14.4571 10.9517 14.4661 11.0407 14.5421 11.0906L15.5018 11.7317C15.5779 11.7815 15.692 11.7744 15.7546 11.7139Z" fill="white"/>
</svg>
