<svg width="17" height="17" viewBox="0 0 17 17" fill="none" xmlns="http://www.w3.org/2000/svg">
<path d="M5.62438 2.28937H5.46438C5.55238 2.28937 5.62438 2.21737 5.62438 2.12937V2.28937H11.7044V2.12937C11.7044 2.21737 11.7764 2.28937 11.8644 2.28937H11.7044V3.72937H13.1444V2.12937C13.1444 1.42337 12.5704 0.849365 11.8644 0.849365H5.46438C4.75838 0.849365 4.18438 1.42337 4.18438 2.12937V3.72937H5.62438V2.28937ZM15.7044 3.72937H1.62438C1.27038 3.72937 0.984375 4.01537 0.984375 4.36937V5.00937C0.984375 5.09737 1.05638 5.16936 1.14438 5.16936H2.35238L2.84638 15.6294C2.87838 16.3114 3.44238 16.8494 4.12438 16.8494H13.2044C13.8884 16.8494 14.4504 16.3134 14.4824 15.6294L14.9764 5.16936H16.1844C16.2724 5.16936 16.3444 5.09737 16.3444 5.00937V4.36937C16.3444 4.01537 16.0584 3.72937 15.7044 3.72937ZM13.0504 15.4094H4.27838L3.79438 5.16936H13.5344L13.0504 15.4094Z" fill="#C4C4C4"/>
</svg>
