<svg width="15" height="17" viewBox="0 0 15 17" fill="none" xmlns="http://www.w3.org/2000/svg">
<path d="M3.30052 13.6494C3.33623 13.6494 3.37194 13.6454 3.40766 13.6394L6.41123 13.0494C6.44694 13.0414 6.48087 13.0234 6.50587 12.9934L14.0755 4.51536C14.0921 4.49686 14.1052 4.47488 14.1142 4.45069C14.1231 4.4265 14.1277 4.40056 14.1277 4.37437C14.1277 4.34817 14.1231 4.32223 14.1142 4.29804C14.1052 4.27385 14.0921 4.25187 14.0755 4.23337L11.1077 0.907365C11.0737 0.869365 11.0291 0.849365 10.9809 0.849365C10.9327 0.849365 10.888 0.869365 10.8541 0.907365L3.28444 9.38536C3.25766 9.41537 3.24159 9.45136 3.23444 9.49136L2.70766 12.8554C2.69029 12.9625 2.69649 13.0728 2.72574 13.1766C2.75499 13.2805 2.8064 13.3748 2.87552 13.4514C2.99337 13.5794 3.14159 13.6494 3.30052 13.6494ZM4.50409 10.1614L10.9809 2.90937L12.2898 4.37537L5.81302 11.6274L4.22552 11.9414L4.50409 10.1614ZM14.413 15.3294H1.27016C0.954088 15.3294 0.69873 15.6154 0.69873 15.9694V16.6894C0.69873 16.7774 0.763016 16.8494 0.841588 16.8494H14.8416C14.9202 16.8494 14.9844 16.7774 14.9844 16.6894V15.9694C14.9844 15.6154 14.7291 15.3294 14.413 15.3294Z" fill="#C4C4C4"/>
</svg>
