<svg width="20" height="20" viewBox="0 0 20 20" fill="none" xmlns="http://www.w3.org/2000/svg">
<path d="M10 0C4.47768 0 0 4.47768 0 10C0 15.5223 4.47768 20 10 20C15.5223 20 20 15.5223 20 10C20 4.47768 15.5223 0 10 0ZM10 18.3036C5.41518 18.3036 1.69643 14.5848 1.69643 10C1.69643 5.41518 5.41518 1.69643 10 1.69643C14.5848 1.69643 18.3036 5.41518 18.3036 10C18.3036 14.5848 14.5848 18.3036 10 18.3036Z" fill="white"/>
<path d="M8.75 6.07143C8.75 6.35559 8.8817 6.62811 9.11612 6.82904C9.35054 7.02997 9.66848 7.14286 10 7.14286C10.3315 7.14286 10.6495 7.02997 10.8839 6.82904C11.1183 6.62811 11.25 6.35559 11.25 6.07143C11.25 5.78727 11.1183 5.51475 10.8839 5.31381C10.6495 5.11288 10.3315 5 10 5C9.66848 5 9.35054 5.11288 9.11612 5.31381C8.8817 5.51475 8.75 5.78727 8.75 6.07143ZM10.625 8.57143H9.375C9.26042 8.57143 9.16667 8.65179 9.16667 8.75V14.8214C9.16667 14.9196 9.26042 15 9.375 15H10.625C10.7396 15 10.8333 14.9196 10.8333 14.8214V8.75C10.8333 8.65179 10.7396 8.57143 10.625 8.57143Z" fill="white"/>
</svg>
