<svg width="14" height="19" viewBox="0 0 14 19" fill="none" xmlns="http://www.w3.org/2000/svg">
<path d="M10.0789 0.987082L2.96842 0.682494C2.78085 0.674459 2.61531 0.7437 2.49792 0.861091C2.38053 0.978482 2.31129 1.14402 2.31932 1.3316L2.51997 5.98205C2.33041 6.12947 2.15151 6.29031 1.98164 6.46018C0.9707 7.47113 0.322388 8.8447 0.217623 10.4C0.190014 10.7977 0.521023 11.1619 0.923647 11.1806L6.16706 11.4052L6.43031 17.6181C6.43333 17.694 6.46305 17.7687 6.51424 17.8291L7.02703 18.4358C7.15604 18.5896 7.37999 18.6064 7.50843 18.478C7.51534 18.4711 7.52224 18.4642 7.52764 18.4558L7.99024 17.8909C8.03683 17.8352 8.05958 17.7613 8.05637 17.6863L7.7901 11.4704L13.0335 11.695C13.2211 11.703 13.3866 11.6338 13.504 11.5164C13.638 11.3824 13.7074 11.1867 13.6751 10.9721C13.3949 9.13679 12.3939 7.4895 10.9822 6.34022L10.7831 1.69127C10.7687 1.32052 10.4527 1.00453 10.0789 0.987082Z" fill="#C4C4C4"/>
</svg>
