<svg width="14" height="19" viewBox="0 0 14 19" fill="none" xmlns="http://www.w3.org/2000/svg">
<path d="M10.0789 0.424582L2.96842 0.119994C2.78085 0.111959 2.61531 0.1812 2.49792 0.298591C2.38053 0.415982 2.31129 0.581522 2.31932 0.769096L2.51997 5.41955C2.33041 5.56697 2.15151 5.72781 1.98164 5.89768C0.9707 6.90863 0.322388 8.2822 0.217623 9.83747C0.190014 10.2352 0.521023 10.5994 0.923647 10.6181L6.16706 10.8427L6.43031 17.0556C6.43333 17.1315 6.46305 17.2062 6.51424 17.2666L7.02703 17.8733C7.15604 18.0271 7.37999 18.0439 7.50843 17.9155C7.51534 17.9086 7.52224 17.9017 7.52764 17.8933L7.99024 17.3284C8.03683 17.2727 8.05958 17.1988 8.05637 17.1238L7.7901 10.9079L13.0335 11.1325C13.2211 11.1405 13.3866 11.0713 13.504 10.9539C13.638 10.8199 13.7074 10.6242 13.6751 10.4096C13.3949 8.57429 12.3939 6.927 10.9822 5.77772L10.7831 1.12877C10.7687 0.758016 10.4527 0.442032 10.0789 0.424582Z" fill="#F7D003"/>
</svg>
