<svg width="20" height="16" viewBox="0 0 20 16" fill="none" xmlns="http://www.w3.org/2000/svg">
<path d="M19.2857 1.42857H15.7143V0.178571C15.7143 0.0803571 15.6339 0 15.5357 0H14.2857C14.1875 0 14.1071 0.0803571 14.1071 0.178571V1.42857H10.8036V0.178571C10.8036 0.0803571 10.7232 0 10.625 0H9.375C9.27679 0 9.19643 0.0803571 9.19643 0.178571V1.42857H5.89286V0.178571C5.89286 0.0803571 5.8125 0 5.71429 0H4.46429C4.36607 0 4.28571 0.0803571 4.28571 0.178571V1.42857H0.714286C0.319196 1.42857 0 1.74777 0 2.14286V15C0 15.3951 0.319196 15.7143 0.714286 15.7143H19.2857C19.6808 15.7143 20 15.3951 20 15V2.14286C20 1.74777 19.6808 1.42857 19.2857 1.42857ZM18.3929 14.1071H1.60714V3.03571H4.28571V4.28571C4.28571 4.38393 4.36607 4.46429 4.46429 4.46429H5.71429C5.8125 4.46429 5.89286 4.38393 5.89286 4.28571V3.03571H9.19643V4.28571C9.19643 4.38393 9.27679 4.46429 9.375 4.46429H10.625C10.7232 4.46429 10.8036 4.38393 10.8036 4.28571V3.03571H14.1071V4.28571C14.1071 4.38393 14.1875 4.46429 14.2857 4.46429H15.5357C15.6339 4.46429 15.7143 4.38393 15.7143 4.28571V3.03571H18.3929V14.1071ZM7.85714 7.5H3.75C3.65179 7.5 3.57143 7.58036 3.57143 7.67857V8.75C3.57143 8.84822 3.65179 8.92857 3.75 8.92857H7.85714C7.95536 8.92857 8.03571 8.84822 8.03571 8.75V7.67857C8.03571 7.58036 7.95536 7.5 7.85714 7.5ZM7.85714 10.5357H3.75C3.65179 10.5357 3.57143 10.6161 3.57143 10.7143V11.7857C3.57143 11.8839 3.65179 11.9643 3.75 11.9643H7.85714C7.95536 11.9643 8.03571 11.8839 8.03571 11.7857V10.7143C8.03571 10.6161 7.95536 10.5357 7.85714 10.5357ZM14.7366 6.57589L12.4241 9.78348L11.2455 8.15179C11.1786 8.05804 11.0714 8.00446 10.9576 8.00446H9.73214C9.58705 8.00446 9.50223 8.16964 9.58705 8.28795L12.1339 11.8192C12.1668 11.8648 12.2101 11.902 12.2601 11.9276C12.3102 11.9533 12.3656 11.9666 12.4219 11.9666C12.4781 11.9666 12.5336 11.9533 12.5836 11.9276C12.6337 11.902 12.6769 11.8648 12.7098 11.8192L16.3929 6.71429C16.4777 6.59598 16.3929 6.4308 16.2478 6.4308H15.0223C14.9107 6.42857 14.8036 6.48438 14.7366 6.57589Z" fill="white"/>
</svg>
