<svg width="20" height="23" viewBox="0 0 20 23" fill="none" xmlns="http://www.w3.org/2000/svg">
<path d="M14.6925 3.55649C12.2525 2.92923 10.7099 2.57508 9.99561 2.41602V19.4631C12.6007 18.3166 15.6409 15.7565 16.5983 11.7589C17.2272 9.32607 17.5697 6.82811 17.6188 4.3158C16.9285 4.13873 15.9651 3.88062 14.6925 3.55649Z" fill="white"/>
<path d="M15.2785 1.26952C11.662 0.336138 9.99629 0 9.99629 0C9.99629 0 8.3306 0.336138 4.7111 1.26952C1.29568 2.14889 0.0981857 2.50004 0.0981857 2.50004C0.0981857 2.50004 -0.460043 5.95146 1.0856 12.3291C2.33712 17.4732 6.43981 20.7806 9.99629 22.0081C13.5528 20.7806 17.6555 17.4732 18.907 12.3291C20.4586 5.95746 19.9034 2.50004 19.9034 2.50004C19.9034 2.50004 18.7029 2.14889 15.2785 1.26952ZM9.99929 20.6636C7.06407 19.5141 3.44157 16.6419 2.31911 12.038C1.27167 7.7252 1.23266 4.80199 1.28968 3.49645C1.99497 3.30137 3.19247 2.98023 5.03223 2.50604C7.78737 1.79774 9.41404 1.43459 9.99929 1.30554C10.5995 1.43459 12.2082 1.79774 14.9663 2.50604C16.8061 2.98023 18.0006 3.30137 18.7059 3.49645C18.7689 4.80499 18.7269 7.7252 17.6765 12.038C16.554 16.6329 12.9345 19.5051 9.99929 20.6636Z" fill="white"/>
</svg>
