<svg width="22" height="20" viewBox="0 0 22 20" fill="none" xmlns="http://www.w3.org/2000/svg">
<path fill-rule="evenodd" clip-rule="evenodd" d="M3.93882 19.1334C3.83157 19.7254 4.43381 20.188 4.96455 19.924L11.0007 16.9162L17.0354 19.924C17.5662 20.188 18.1684 19.7254 18.0612 19.1347L16.92 12.8285L21.764 8.35422C22.2163 7.93559 21.9812 7.17031 21.3749 7.08765L14.6402 6.15972L11.6373 0.390829C11.5801 0.273889 11.4898 0.175089 11.377 0.105907C11.2642 0.0367245 11.1335 0 11 0C10.8665 0 10.7358 0.0367245 10.623 0.105907C10.5102 0.175089 10.4199 0.273889 10.3627 0.390829L7.35976 6.16106L0.625136 7.08899C0.0187731 7.17165 -0.216347 7.93692 0.236019 8.35556L5.08005 12.8299L3.93882 19.1361V19.1334Z" fill="#E1B20A"/>
</svg>
