<svg width="24" height="24" viewBox="0 0 24 24" fill="none" xmlns="http://www.w3.org/2000/svg">
<path fill-rule="evenodd" clip-rule="evenodd" d="M4.93882 21.1334C4.83157 21.7254 5.43381 22.188 5.96455 21.924L12.0007 18.9162L18.0354 21.924C18.5662 22.188 19.1684 21.7254 19.0612 21.1347L17.92 14.8285L22.764 10.3542C23.2163 9.93559 22.9812 9.17031 22.3749 9.08765L15.6402 8.15972L12.6373 2.39083C12.5801 2.27389 12.4898 2.17509 12.377 2.10591C12.2642 2.03672 12.1335 2 12 2C11.8665 2 11.7358 2.03672 11.623 2.10591C11.5102 2.17509 11.4199 2.27389 11.3627 2.39083L8.35976 8.16106L1.62514 9.08899C1.01877 9.17165 0.783653 9.93692 1.23602 10.3556L6.08005 14.8299L4.93882 21.1361V21.1334ZM11.6831 17.4444L6.61492 19.9695L7.56915 14.6939C7.5915 14.5725 7.58276 14.4475 7.54368 14.3302C7.5046 14.2128 7.43638 14.1065 7.34503 14.0206L3.34935 10.3276L8.92075 9.55962C9.03611 9.54272 9.14554 9.49897 9.23965 9.43209C9.33376 9.36522 9.40975 9.27723 9.46111 9.17565L12.0007 4.29868L14.5389 9.17565C14.5903 9.27723 14.6662 9.36522 14.7604 9.43209C14.8545 9.49897 14.9639 9.54272 15.0793 9.55962L20.6506 10.3262L16.655 14.0193C16.5633 14.1052 16.4949 14.2117 16.4558 14.3294C16.4167 14.447 16.4081 14.5722 16.4309 14.6939L17.3851 19.9695L12.3169 17.4444C12.2189 17.3954 12.1103 17.3698 12 17.3698C11.8897 17.3698 11.7811 17.3954 11.6831 17.4444Z" fill="#828282"/>
</svg>
